<svg width="572" height="158" viewBox="0 0 572 158" fill="none" xmlns="http://www.w3.org/2000/svg">
<path d="M53.6875 0H61.5625L83.5 48.375L104.875 0H112.75L88 54H79L57.625 6.75L36.25 54H27.25L0.25 0H8.125L31.75 48.375L53.6875 0ZM121.75 54V0H175.75V5.625H128.5V23.625H173.5V29.25H128.5V48.375H175.75V54H121.75ZM256.75 0H263.5V54H256.75V29.25H207.25V54H200.5V0H207.25V23.625H256.75V0ZM329.875 41.625H287.125L280.375 54H272.5L304 0H313L344.5 54H336.625L329.875 41.625ZM326.5 36L308.5 4.5L290.5 36H326.5ZM408.625 0H416.5L387.25 54H378.25L349 0H356.875L382.75 49.5L408.625 0ZM425.5 54V0H479.5V5.625H432.25V23.625H477.25V29.25H432.25V48.375H479.5V54H425.5ZM557.125 41.625H514.375L507.625 54H499.75L531.25 0H540.25L571.75 54H563.875L557.125 41.625ZM553.75 36L535.75 4.5L517.75 36H553.75ZM4.75 102H45.3203C48.6719 102 51.4961 102.152 53.793 102.457C56.1133 102.738 58.0234 103.172 59.5234 103.758C61.0234 104.344 62.1719 105.07 62.9688 105.938C63.7891 106.805 64.3867 107.824 64.7617 108.996C65.1367 110.168 65.3477 111.48 65.3945 112.934C65.4648 114.387 65.5 115.992 65.5 117.75C65.5 119.578 65.4531 121.266 65.3594 122.812C65.2891 124.359 65.0195 125.766 64.5508 127.031C64.1055 128.273 63.3789 129.375 62.3711 130.336C61.3867 131.273 59.9688 132.059 58.1172 132.691C56.2891 133.324 53.957 133.805 51.1211 134.133C48.3086 134.461 44.8398 134.625 40.7148 134.625H11.5V156H4.75V102ZM11.5 129H40.7148C43.7148 129 46.2344 128.953 48.2734 128.859C50.3359 128.742 52.0352 128.543 53.3711 128.262C54.707 127.98 55.7383 127.582 56.4648 127.066C57.1914 126.551 57.7188 125.871 58.0469 125.027C58.3984 124.184 58.5977 123.176 58.6445 122.004C58.7148 120.809 58.75 119.391 58.75 117.75C58.75 116.227 58.7148 114.914 58.6445 113.812C58.5977 112.711 58.3984 111.785 58.0469 111.035C57.7188 110.285 57.1914 109.688 56.4648 109.242C55.7383 108.797 54.707 108.457 53.3711 108.223C52.0352 107.965 50.3359 107.801 48.2734 107.73C46.2344 107.66 43.7148 107.625 40.7148 107.625H11.5V129ZM136.375 156H129.625V145.875C129.625 144.234 129.59 142.828 129.52 141.656C129.473 140.461 129.273 139.441 128.922 138.598C128.594 137.754 128.066 137.074 127.34 136.559C126.613 136.043 125.582 135.645 124.246 135.363C122.91 135.082 121.211 134.895 119.148 134.801C117.109 134.684 114.59 134.625 111.59 134.625H81.25V156H74.5V102H112.715C116.84 102 120.309 102.152 123.121 102.457C125.957 102.738 128.289 103.172 130.117 103.758C131.969 104.344 133.387 105.07 134.371 105.938C135.379 106.805 136.105 107.824 136.551 108.996C137.02 110.168 137.289 111.48 137.359 112.934C137.453 114.387 137.5 115.992 137.5 117.75C137.5 120 137.336 121.98 137.008 123.691C136.703 125.379 136.176 126.82 135.426 128.016C134.676 129.211 133.68 130.172 132.438 130.898C131.195 131.602 129.637 132.094 127.762 132.375C129.637 132.656 131.137 133.148 132.262 133.852C133.387 134.555 134.254 135.469 134.863 136.594C135.473 137.719 135.871 139.055 136.059 140.602C136.27 142.148 136.375 143.906 136.375 145.875V156ZM81.25 129H112.715C115.715 129 118.234 128.953 120.273 128.859C122.336 128.742 124.035 128.543 125.371 128.262C126.707 127.98 127.738 127.582 128.465 127.066C129.191 126.551 129.719 125.871 130.047 125.027C130.398 124.184 130.598 123.176 130.645 122.004C130.715 120.809 130.75 119.391 130.75 117.75C130.75 116.227 130.715 114.914 130.645 113.812C130.598 112.711 130.398 111.785 130.047 111.035C129.719 110.285 129.191 109.688 128.465 109.242C127.738 108.797 126.707 108.457 125.371 108.223C124.035 107.965 122.336 107.801 120.273 107.73C118.234 107.66 115.715 107.625 112.715 107.625H81.25V129ZM191.535 100.875C195.66 100.875 199.129 101.133 201.941 101.648C204.777 102.141 207.109 102.902 208.938 103.934C210.766 104.941 212.172 106.219 213.156 107.766C214.141 109.312 214.855 111.129 215.301 113.215C215.77 115.301 216.039 117.656 216.109 120.281C216.203 122.906 216.25 125.812 216.25 129C216.25 132.188 216.203 135.094 216.109 137.719C216.039 140.344 215.77 142.699 215.301 144.785C214.855 146.871 214.141 148.688 213.156 150.234C212.172 151.781 210.766 153.07 208.938 154.102C207.109 155.109 204.777 155.859 201.941 156.352C199.129 156.867 195.66 157.125 191.535 157.125H171.215C167.09 157.125 163.609 156.867 160.773 156.352C157.961 155.859 155.641 155.109 153.812 154.102C151.984 153.07 150.566 151.781 149.559 150.234C148.574 148.688 147.848 146.871 147.379 144.785C146.934 142.699 146.676 140.344 146.605 137.719C146.535 135.094 146.5 132.188 146.5 129C146.5 125.812 146.535 122.906 146.605 120.281C146.676 117.656 146.934 115.301 147.379 113.215C147.848 111.129 148.574 109.312 149.559 107.766C150.566 106.219 151.984 104.941 153.812 103.934C155.641 102.902 157.961 102.141 160.773 101.648C163.609 101.133 167.09 100.875 171.215 100.875H191.535ZM191.535 151.5C194.512 151.5 197.02 151.418 199.059 151.254C201.121 151.066 202.82 150.703 204.156 150.164C205.492 149.625 206.523 148.852 207.25 147.844C207.977 146.836 208.504 145.5 208.832 143.836C209.16 142.172 209.348 140.133 209.395 137.719C209.465 135.281 209.5 132.375 209.5 129C209.5 125.625 209.465 122.73 209.395 120.316C209.348 117.879 209.16 115.828 208.832 114.164C208.504 112.5 207.977 111.164 207.25 110.156C206.523 109.148 205.492 108.375 204.156 107.836C202.844 107.297 201.156 106.945 199.094 106.781C197.055 106.594 194.535 106.5 191.535 106.5H171.215C168.215 106.5 165.684 106.594 163.621 106.781C161.582 106.945 159.895 107.297 158.559 107.836C157.223 108.375 156.191 109.148 155.465 110.156C154.738 111.164 154.211 112.5 153.883 114.164C153.555 115.828 153.367 117.879 153.32 120.316C153.273 122.73 153.25 125.625 153.25 129C153.25 132.375 153.273 135.281 153.32 137.719C153.391 140.133 153.59 142.172 153.918 143.836C154.246 145.5 154.762 146.836 155.465 147.844C156.191 148.852 157.223 149.625 158.559 150.164C159.895 150.703 161.582 151.066 163.621 151.254C165.684 151.418 168.215 151.5 171.215 151.5H191.535ZM227.5 156V102H272.535C275.91 102 278.629 102.281 280.691 102.844C282.754 103.383 284.336 104.191 285.438 105.27C286.562 106.324 287.312 107.648 287.688 109.242C288.062 110.836 288.25 112.664 288.25 114.727C288.25 116.227 288.121 117.551 287.863 118.699C287.605 119.848 287.266 120.844 286.844 121.688C286.422 122.531 285.941 123.246 285.402 123.832C284.863 124.395 284.312 124.863 283.75 125.238C282.438 126.129 280.938 126.633 279.25 126.75C281.359 126.867 283.234 127.383 284.875 128.297C285.578 128.695 286.258 129.199 286.914 129.809C287.594 130.395 288.191 131.133 288.707 132.023C289.246 132.891 289.68 133.922 290.008 135.117C290.336 136.289 290.5 137.648 290.5 139.195C290.5 141.07 290.406 142.793 290.219 144.363C290.055 145.91 289.703 147.305 289.164 148.547C288.625 149.789 287.852 150.879 286.844 151.816C285.836 152.754 284.488 153.539 282.801 154.172C281.137 154.781 279.086 155.238 276.648 155.543C274.234 155.848 271.34 156 267.965 156H227.5ZM265.715 150.375C268.34 150.375 270.613 150.34 272.535 150.27C274.457 150.176 276.086 150 277.422 149.742C278.758 149.461 279.836 149.074 280.656 148.582C281.477 148.066 282.109 147.398 282.555 146.578C283.023 145.734 283.34 144.715 283.504 143.52C283.668 142.324 283.75 140.883 283.75 139.195C283.75 137.883 283.668 136.746 283.504 135.785C283.34 134.801 283.023 133.98 282.555 133.324C282.109 132.645 281.477 132.105 280.656 131.707C279.836 131.285 278.758 130.957 277.422 130.723C276.086 130.488 274.457 130.336 272.535 130.266C270.613 130.172 268.34 130.125 265.715 130.125H234.25V150.375H265.715ZM265.715 124.5C268.012 124.5 269.992 124.453 271.656 124.359C273.32 124.266 274.738 124.09 275.91 123.832C277.082 123.574 278.031 123.223 278.758 122.777C279.484 122.309 280.047 121.711 280.445 120.984C280.867 120.258 281.148 119.391 281.289 118.383C281.43 117.352 281.5 116.133 281.5 114.727C281.5 113.227 281.336 112.008 281.008 111.07C280.68 110.133 280.094 109.418 279.25 108.926C278.406 108.41 277.258 108.07 275.805 107.906C274.375 107.719 272.535 107.625 270.285 107.625H234.25V124.5H265.715ZM301.75 156V102H308.5V150.375H351.25V156H301.75ZM360.25 156V102H414.25V107.625H367V125.625H412V131.25H367V150.375H414.25V156H360.25ZM430 106.5V156H423.25V102H434.5L465.965 149.25L497.43 102H508.188V156H501.438V107.238L469.375 156H462.555L430 106.5ZM519.438 102H526.188L524.5 140.25H521.125L519.438 102ZM526.188 156H519.438V149.25H526.188V156ZM535.188 102H541.938L540.25 140.25H536.875L535.188 102ZM541.938 156H535.188V149.25H541.938V156ZM550.938 102H557.688L556 140.25H552.625L550.938 102ZM557.688 156H550.938V149.25H557.688V156Z" fill="url(#paint0_linear_66_19818)"/>
<defs>
<linearGradient id="paint0_linear_66_19818" x1="161.295" y1="-79.757" x2="622.54" y2="388.826" gradientUnits="userSpaceOnUse">
<stop stop-color="#FDF25C"/>
<stop offset="1" stop-color="#FDF25C" stop-opacity="0"/>
</linearGradient>
</defs>
</svg>
